{"title":"Rose and Maloney S02","uid":10778394,"size":3155975861,"categoryP":"video","categoryS":"tv_shows","magnet":"?xt=urn:btih:230c442227997e5a4fa4069f7c74c336ab9f4a85&amp;dn=Rose+and+Maloney+S02&amp;tr=udp%3A%2F%2Ftracker.openbittorrent.com%3A80&amp;tr=udp%3A%2F%2Fopen.demonii.com%3A1337&amp;tr=udp%3A%2F%2Ftracker.coppersurfer.tk%3A6969&amp;tr=udp%3A%2F%2Fexodus.desync.com%3A6969","seeders":2,"leechers":1,"uploader":"RedBaron58","files":6,"time":1408137893,"description":"Rose and Maloney S02 - Crime Drama x264 mp4 \n &lt;a href=&quot;\nhttp://www.imdb.com/title/tt0338655/&quot; rel=&quot;nofollow&quot; target=&quot;_NEW&quot;&gt;\nhttp://www.imdb.com/title/tt0338655/&lt;/a&gt;\n\n\n\n\nThank you for your kind comments and thumbs ups on my other torrents, your feedback is welcome.\n\n\nAbout the Series:\nA series of three two-part stories.\n\nRose Linden(Sarah Lancashire) and Maloney(Phil Davis) work with the fictional Criminal Justice Review Agency,\nan organization which seeks out miscarriages of justice. Rose is brilliant but strong-willed and sometimes \nreckless. She likes to follow her instincts and play hunches and often comes into conflict with authority. \nMaloney, although Rose's superior, usually allows himself to be led by his more passionate colleague. \nMaloney is a by-the-book man and a little grey. He finds working with Rose dangerous but addictively \nexciting.\n\n\nI hope you enjoy.\n\n\nTechnical: (All Episodes encoded to the same settings)\n\nGeneral\nComplete name                            : H:Rose and Maloney S02Rose and Maloney S02E01 x264 RB58.mp4\nFormat                                   : MPEG-4\nFormat profile                           : Base Media\nCodec ID                                 : isom\nFile size                                : 504 MiB\nDuration                                 : 46mn 40s\nOverall bit rate                         : 1 509 Kbps\nWriting application                      : Lavf54.63.104\n\nVideo\nID                                       : 1\nFormat                                   : AVC\nFormat/Info                              : Advanced Video Codec\nFormat profile                           : &lt;a class=&quot;__cf_email__&quot; href=&quot;/cdn-cgi/l/email-protection&quot; data-cfemail=&quot;2d65444a456d611e031d&quot;&gt;[email&amp;#160;protected]&lt;/a&gt;&lt;script cf-hash='f9e31' type=&quot;text/javascript&quot;&gt;\n/* &lt;![CDATA[ */!function(){try{var t=&quot;currentScript&quot;in document?document.currentScript:function(){for(var t=document.getElementsByTagName(&quot;script&quot;),e=t.length;e--;)if(t[e].getAttribute(&quot;cf-hash&quot;))return t[e]}();if(t&amp;&amp;t.previousSibling){var e,r,n,i,c=t.previousSibling,a=c.getAttribute(&quot;data-cfemail&quot;);if(a){for(e=&quot;&quot;,r=parseInt(a.substr(0,2),16),n=2;a.length-n;n+=2)i=parseInt(a.substr(n,2),16)^r,e+=String.fromCharCode(i);e=document.createTextNode(e),c.parentNode.replaceChild(e,c)}}}catch(u){}}();/* ]]&gt; */&lt;/script&gt;\nFormat settings, CABAC                   : Yes\nFormat settings, ReFrames                : 4 frames\nCodec ID                                 : avc1\nCodec ID/Info                            : Advanced Video Coding\nDuration                                 : 46mn 40s\nBit rate                                 : 1 400 Kbps\nWidth                                    : 832 pixels\nHeight                                   : 468 pixels\nDisplay aspect ratio                     : 16:9\nFrame rate mode                          : Constant\nFrame rate                               : 25.000 fps\nColor space                              : YUV\nChroma subsampling                       : 4:2:0\nBit depth                                : 8 bits\nScan type                                : Progressive\nBits/(Pixel*Frame)                       : 0.144\nStream size                              : 467 MiB (93%)\nWriting library                          : x264 core 123 r2189 35cf912\nEncoding settings                        : cabac=1 / ref=3 / deblock=1:0:0\n\nAudio\nID                                       : 2\nFormat                                   : AAC\nFormat/Info                              : Advanced Audio Codec\nFormat profile                           : LC\nCodec ID                                 : 40\nDuration                                 : 46mn 39s\nBit rate mode                            : Constant\nBit rate                                 : 100 Kbps\nChannel(s)                               : 2 channels\nChannel positions                        : Front: L R\nSampling rate                            : 44.1 KHz\nCompression mode                         : Lossy\nStream size                              : 33.5 MiB (7%)\nLanguage                                 : English","torrent":{"xt":"urn:btih:230c442227997e5a4fa4069f7c74c336ab9f4a85","amp;dn":"Rose+and+Maloney+S02","amp;tr":["udp%3A%2F%2Ftracker.openbittorrent.com%3A80","udp%3A%2F%2Fopen.demonii.com%3A1337","udp%3A%2F%2Ftracker.coppersurfer.tk%3A6969","udp%3A%2F%2Fexodus.desync.com%3A6969"],"infoHash":"230c442227997e5a4fa4069f7c74c336ab9f4a85","infoHashBuffer":{"type":"Buffer","data":[35,12,68,34,39,153,126,90,79,164,6,159,124,116,195,54,171,159,74,133]},"announce":[],"urlList":[]}}